{
    "asset" : {
        "generator" : "Khronos glTF Blender I/O v1.4.40",
        "version" : "2.0"
    },
    "scene" : 0,
    "scenes" : [
        {
            "name" : "Scene",
            "nodes" : [
                2
            ]
        }
    ],
    "nodes" : [
        {
            "mesh" : 0,
            "name" : "Mesh_0",
            "rotation" : [
                -0.529657244682312,
                0.46215754747390747,
                0.5086342096328735,
                0.4971567988395691
            ],
            "scale" : [
                0.5,
                0.5,
                0.5
            ],
            "translation" : [
                0,
                -3.4298083782196045,
                0
            ]
        },
        {
            "children" : [
                0
            ],
            "name" : "bottle2020.obj.cleaner.materialmerger.gles"
        },
        {
            "children" : [
                1
            ],
            "name" : "RootNode (model correction matrix)"
        }
    ],
    "materials" : [
        {
            "doubleSided" : true,
            "name" : "phong1SG",
            "pbrMetallicRoughness" : {
                "baseColorTexture" : {
                    "index" : 0,
                    "texCoord" : 0
                },
                "metallicFactor" : 0,
                "roughnessFactor" : 0.6000000238418579
            }
        },
        {
            "doubleSided" : true,
            "name" : "reflectiveSG",
            "pbrMetallicRoughness" : {
                "baseColorTexture" : {
                    "index" : 1,
                    "texCoord" : 0
                },
                "metallicFactor" : 0,
                "roughnessFactor" : 0.6000000238418579
            }
        }
    ],
    "meshes" : [
        {
            "name" : "Mesh_0",
            "primitives" : [
                {
                    "attributes" : {
                        "POSITION" : 0,
                        "NORMAL" : 1,
                        "TEXCOORD_0" : 2
                    },
                    "indices" : 3,
                    "material" : 0
                },
                {
                    "attributes" : {
                        "POSITION" : 4,
                        "NORMAL" : 5,
                        "TEXCOORD_0" : 6
                    },
                    "indices" : 7,
                    "material" : 1
                }
            ]
        }
    ],
    "textures" : [
        {
            "sampler" : 0,
            "source" : 0
        },
        {
            "sampler" : 0,
            "source" : 0
        }
    ],
    "images" : [
        {
            "mimeType" : "image/png",
            "name" : "phong1SG_baseColor",
            "uri" : "phong1SG_baseColor.png"
        }
    ],
    "accessors" : [
        {
            "bufferView" : 0,
            "componentType" : 5126,
            "count" : 676,
            "max" : [
                4.283209800720215,
                4.46593713760376,
                24.545448303222656
            ],
            "min" : [
                -4.59881591796875,
                -4.46593713760376,
                2.362781047821045
            ],
            "type" : "VEC3"
        },
        {
            "bufferView" : 1,
            "componentType" : 5126,
            "count" : 676,
            "type" : "VEC3"
        },
        {
            "bufferView" : 2,
            "componentType" : 5126,
            "count" : 676,
            "type" : "VEC2"
        },
        {
            "bufferView" : 3,
            "componentType" : 5123,
            "count" : 2610,
            "type" : "SCALAR"
        },
        {
            "bufferView" : 4,
            "componentType" : 5126,
            "count" : 420,
            "max" : [
                3.392759084701538,
                3.580573081970215,
                23.04684829711914
            ],
            "min" : [
                -3.7284209728240967,
                -3.580573081970215,
                11.82851505279541
            ],
            "type" : "VEC3"
        },
        {
            "bufferView" : 5,
            "componentType" : 5126,
            "count" : 420,
            "type" : "VEC3"
        },
        {
            "bufferView" : 6,
            "componentType" : 5126,
            "count" : 420,
            "type" : "VEC2"
        },
        {
            "bufferView" : 7,
            "componentType" : 5123,
            "count" : 1734,
            "type" : "SCALAR"
        }
    ],
    "bufferViews" : [
        {
            "buffer" : 0,
            "byteLength" : 8112,
            "byteOffset" : 0
        },
        {
            "buffer" : 0,
            "byteLength" : 8112,
            "byteOffset" : 8112
        },
        {
            "buffer" : 0,
            "byteLength" : 5408,
            "byteOffset" : 16224
        },
        {
            "buffer" : 0,
            "byteLength" : 5220,
            "byteOffset" : 21632
        },
        {
            "buffer" : 0,
            "byteLength" : 5040,
            "byteOffset" : 26852
        },
        {
            "buffer" : 0,
            "byteLength" : 5040,
            "byteOffset" : 31892
        },
        {
            "buffer" : 0,
            "byteLength" : 3360,
            "byteOffset" : 36932
        },
        {
            "buffer" : 0,
            "byteLength" : 3468,
            "byteOffset" : 40292
        }
    ],
    "samplers" : [
        {
            "magFilter" : 9729,
            "minFilter" : 9986
        }
    ],
    "buffers" : [
        {
            "byteLength" : 43760,
            "uri" : "p3.bin"
        }
    ]
}
