{
    "asset" : {
        "generator" : "Khronos glTF Blender I/O v1.4.40",
        "version" : "2.0"
    },
    "scene" : 0,
    "scenes" : [
        {
            "name" : "Scene",
            "nodes" : [
                6,
                7,
                8
            ]
        }
    ],
    "nodes" : [
        {
            "mesh" : 0,
            "name" : "Carreta_L0_lambert1_0",
            "scale" : [
                1.1323490142822266,
                1.0006685256958008,
                1.0238057374954224
            ],
            "translation" : [
                -196.0465850830078,
                -25.18630599975586,
                151.16233825683594
            ]
        },
        {
            "children" : [
                0
            ],
            "name" : "Carreta_L0",
            "rotation" : [
                -0.08245673775672913,
                0,
                0,
                0.9965946674346924
            ],
            "translation" : [
                196.625244140625,
                -46.723167419433594,
                24.69635009765625
            ]
        },
        {
            "name" : "Carreta_L1",
            "rotation" : [
                -0.08245673775672913,
                0,
                0,
                0.9965946674346924
            ]
        },
        {
            "children" : [
                1,
                2
            ],
            "name" : "RootNode"
        },
        {
            "children" : [
                3
            ],
            "name" : "424a857279fa40bc92c2e700e4ddd026.fbx",
            "rotation" : [
                0.7071068286895752,
                0,
                0,
                0.7071068286895752
            ]
        },
        {
            "children" : [
                4
            ],
            "name" : "RootNode (model correction matrix)"
        },
        {
            "children" : [
                5
            ],
            "name" : "RootNode (gltf orientation matrix)",
            "rotation" : [
                -0.7071068286895752,
                0,
                0,
                0.7071068286895752
            ],
            "scale" : [
                0.25,
                0.25,
                0.25
            ],
            "translation" : [
                0,
                0,
                -4.598418712615967
            ]
        },
        {
            "name" : "Light",
            "rotation" : [
                0.16907575726509094,
                0.7558803558349609,
                -0.27217137813568115,
                0.570947527885437
            ],
            "translation" : [
                4.076245307922363,
                5.903861999511719,
                -5.603872776031494
            ]
        },
        {
            "name" : "Camera",
            "rotation" : [
                0.483536034822464,
                0.33687159419059753,
                -0.20870360732078552,
                0.7804827094078064
            ],
            "translation" : [
                7.358891487121582,
                4.958309173583984,
                2.3273720741271973
            ]
        }
    ],
    "materials" : [
        {
            "doubleSided" : true,
            "name" : "lambert1",
            "pbrMetallicRoughness" : {
                "metallicFactor" : 0.30571871995925903
            }
        }
    ],
    "meshes" : [
        {
            "name" : "Carreta_L0_lambert1_0",
            "primitives" : [
                {
                    "attributes" : {
                        "POSITION" : 0,
                        "NORMAL" : 1,
                        "TEXCOORD_0" : 2
                    },
                    "indices" : 3,
                    "material" : 0
                }
            ]
        }
    ],
    "accessors" : [
        {
            "bufferView" : 0,
            "componentType" : 5126,
            "count" : 3545,
            "max" : [
                81.42122650146484,
                123.80636596679688,
                60.7397346496582
            ],
            "min" : [
                -81.42122650146484,
                -0.12281355261802673,
                -255.8186798095703
            ],
            "type" : "VEC3"
        },
        {
            "bufferView" : 1,
            "componentType" : 5126,
            "count" : 3545,
            "type" : "VEC3"
        },
        {
            "bufferView" : 2,
            "componentType" : 5126,
            "count" : 3545,
            "type" : "VEC2"
        },
        {
            "bufferView" : 3,
            "componentType" : 5123,
            "count" : 5112,
            "type" : "SCALAR"
        }
    ],
    "bufferViews" : [
        {
            "buffer" : 0,
            "byteLength" : 42540,
            "byteOffset" : 0
        },
        {
            "buffer" : 0,
            "byteLength" : 42540,
            "byteOffset" : 42540
        },
        {
            "buffer" : 0,
            "byteLength" : 28360,
            "byteOffset" : 85080
        },
        {
            "buffer" : 0,
            "byteLength" : 10224,
            "byteOffset" : 113440
        }
    ],
    "buffers" : [
        {
            "byteLength" : 123664,
            "uri" : "data:application/octet-stream;base64,"
        }
    ]
}
