{
  "accessors": [
    {
      "bufferView": 2,
      "componentType": 5126,
      "count": 621,
      "max": [
        3.1903111934661865,
        3.3630061149597168,
        0.40100795030593872
      ],
      "min": [
        -3.6108322143554688,
        -3.2601449489593506,
        -0.16498933732509613
      ],
      "type": "VEC3"
    },
    {
      "bufferView": 2,
      "byteOffset": 7452,
      "componentType": 5126,
      "count": 621,
      "max": [
        0.99977201223373413,
        0.75772911310195923,
        -0.0034673907794058323
      ],
      "min": [
        -0.9999813437461853,
        -0.46695780754089355,
        -0.99950766563415527
      ],
      "type": "VEC3"
    },
    {
      "bufferView": 3,
      "componentType": 5126,
      "count": 621,
      "max": [
        0.99746066331863403,
        0.99999231100082397,
        0.99547851085662842,
        1
      ],
      "min": [
        -0.99999159574508667,
        -0.99988687038421631,
        -0.98088419437408447,
        -1
      ],
      "type": "VEC4"
    },
    {
      "bufferView": 1,
      "componentType": 5126,
      "count": 621,
      "max": [
        0.99077445268630981,
        0.99139559268951416
      ],
      "min": [
        0.011562628671526909,
        0.030034065246582031
      ],
      "type": "VEC2"
    },
    {
      "bufferView": 0,
      "componentType": 5125,
      "count": 1023,
      "max": [
        620
      ],
      "min": [
        0
      ],
      "type": "SCALAR"
    },
    {
      "bufferView": 2,
      "byteOffset": 14904,
      "componentType": 5126,
      "count": 65532,
      "max": [
        3.5974395275115967,
        3.6829240322113037,
        7.5797948837280273
      ],
      "min": [
        -4.1507792472839355,
        -4.1765589714050293,
        -0.15526829659938812
      ],
      "type": "VEC3"
    },
    {
      "bufferView": 2,
      "byteOffset": 801288,
      "componentType": 5126,
      "count": 65532,
      "max": [
        0.9999995231628418,
        0.99999880790710449,
        0.99999946355819702
      ],
      "min": [
        -0.99997979402542114,
        -1,
        -1
      ],
      "type": "VEC3"
    },
    {
      "bufferView": 3,
      "byteOffset": 9936,
      "componentType": 5126,
      "count": 65532,
      "max": [
        0.98026412725448608,
        0.99997478723526001,
        1,
        1
      ],
      "min": [
        -0.99508941173553467,
        -0.99915504455566406,
        -0.5060456395149231,
        1
      ],
      "type": "VEC4"
    },
    {
      "bufferView": 1,
      "byteOffset": 4968,
      "componentType": 5126,
      "count": 65532,
      "max": [
        0.99840599298477173,
        0.99977099895477295
      ],
      "min": [
        0.00031299999682232738,
        0.001710057258605957
      ],
      "type": "VEC2"
    },
    {
      "bufferView": 0,
      "byteOffset": 4092,
      "componentType": 5125,
      "count": 329823,
      "max": [
        65531
      ],
      "min": [
        0
      ],
      "type": "SCALAR"
    },
    {
      "bufferView": 2,
      "byteOffset": 1587672,
      "componentType": 5126,
      "count": 30590,
      "max": [
        3.6325128078460693,
        3.6829240322113037,
        7.5797948837280273
      ],
      "min": [
        -4.1445140838623047,
        -4.3607521057128906,
        -0.16498933732509613
      ],
      "type": "VEC3"
    },
    {
      "bufferView": 2,
      "byteOffset": 1954752,
      "componentType": 5126,
      "count": 30590,
      "max": [
        1,
        1,
        1
      ],
      "min": [
        -1,
        -1,
        -1
      ],
      "type": "VEC3"
    },
    {
      "bufferView": 3,
      "byteOffset": 1058448,
      "componentType": 5126,
      "count": 30590,
      "max": [
        0.99992835521697998,
        0.9999040961265564,
        0.99999982118606567,
        1
      ],
      "min": [
        -0.99894458055496216,
        -0.99992161989212036,
        -0.99485427141189575,
        1
      ],
      "type": "VEC4"
    },
    {
      "bufferView": 1,
      "byteOffset": 529224,
      "componentType": 5126,
      "count": 30590,
      "max": [
        0.99844598770141602,
        0.9997820258140564
      ],
      "min": [
        0.00081499997759237885,
        0.001958012580871582
      ],
      "type": "VEC2"
    },
    {
      "bufferView": 0,
      "byteOffset": 1323384,
      "componentType": 5125,
      "count": 74928,
      "max": [
        30589
      ],
      "min": [
        0
      ],
      "type": "SCALAR"
    }
  ],
  "asset": {
    "extras": {
      "author": "Universidad Provincial de Córdoba (https://sketchfab.com/tatomaffini)",
      "license": "CC-BY-4.0 (http://creativecommons.org/licenses/by/4.0/)",
      "source": "https://sketchfab.com/3d-models/canasta-mimbre-1563190a338f443f8d8387103447f395",
      "title": "Canasta Mimbre"
    },
    "generator": "Sketchfab-6.76.0",
    "version": "2.0"
  },
  "bufferViews": [
    {
      "buffer": 0,
      "byteLength": 1623096,
      "byteOffset": 0,
      "name": "floatBufferViews",
      "target": 34963
    },
    {
      "buffer": 0,
      "byteLength": 773944,
      "byteOffset": 1623096,
      "byteStride": 8,
      "name": "floatBufferViews",
      "target": 34962
    },
    {
      "buffer": 0,
      "byteLength": 2321832,
      "byteOffset": 2397040,
      "byteStride": 12,
      "name": "floatBufferViews",
      "target": 34962
    },
    {
      "buffer": 0,
      "byteLength": 1547888,
      "byteOffset": 4718872,
      "byteStride": 16,
      "name": "floatBufferViews",
      "target": 34962
    }
  ],
  "buffers": [
    {
      "byteLength": 6266760,
      "uri": "scene.bin"
    }
  ],
  "images": [
    {
      "uri": "textures/Base_baseColor.jpeg"
    },
    {
      "uri": "textures/Canasta_Mimbre_baseColor.jpeg"
    }
  ],
  "materials": [
    {
      "doubleSided": true,
      "emissiveFactor": [
        0,
        0,
        0
      ],
      "name": "Base",
      "pbrMetallicRoughness": {
        "baseColorFactor": [
          1,
          1,
          1,
          1
        ],
        "baseColorTexture": {
          "index": 0,
          "texCoord": 0
        },
        "metallicFactor": 0,
        "roughnessFactor": 0.95243171539989113
      }
    },
    {
      "doubleSided": true,
      "emissiveFactor": [
        0,
        0,
        0
      ],
      "name": "Canasta_Mimbre",
      "pbrMetallicRoughness": {
        "baseColorFactor": [
          1,
          1,
          1,
          1
        ],
        "baseColorTexture": {
          "index": 1,
          "texCoord": 0
        },
        "metallicFactor": 0,
        "roughnessFactor": 1
      }
    }
  ],
  "meshes": [
    {
      "name": "Base_1_Base_0",
      "primitives": [
        {
          "attributes": {
            "NORMAL": 1,
            "POSITION": 0,
            "TANGENT": 2,
            "TEXCOORD_0": 3
          },
          "indices": 4,
          "material": 0,
          "mode": 4
        }
      ]
    },
    {
      "name": "Group_Global_Canasta_Mimbre_0",
      "primitives": [
        {
          "attributes": {
            "NORMAL": 6,
            "POSITION": 5,
            "TANGENT": 7,
            "TEXCOORD_0": 8
          },
          "indices": 9,
          "material": 1,
          "mode": 4
        }
      ]
    },
    {
      "name": "Group_Global_Canasta_Mimbre_0",
      "primitives": [
        {
          "attributes": {
            "NORMAL": 11,
            "POSITION": 10,
            "TANGENT": 12,
            "TEXCOORD_0": 13
          },
          "indices": 14,
          "material": 1,
          "mode": 4
        }
      ]
    }
  ],
  "nodes": [
    {
      "children": [
        1
      ],
      "name": "RootNode (gltf orientation matrix)",
      "rotation": [
        -0.70710678118654746,
        -0,
        -0,
        0.70710678118654757
      ]
    },
    {
      "children": [
        2
      ],
      "name": "RootNode (model correction matrix)"
    },
    {
      "children": [
        3
      ],
      "matrix": [
        1,
        0,
        0,
        0,
        0,
        0,
        1,
        0,
        0,
        -1,
        0,
        0,
        0,
        0,
        0,
        1
      ],
      "name": "50c7595df3f8479b9616a7a4fb1e64b9.fbx"
    },
    {
      "children": [
        4,
        6
      ],
      "name": "RootNode"
    },
    {
      "children": [
        5
      ],
      "matrix": [
        1,
        0,
        0,
        0,
        0,
        2.2204460492503131e-16,
        -1,
        0,
        0,
        1,
        2.2204460492503131e-16,
        0,
        0,
        0,
        -2.4651903288156619e-32,
        1
      ],
      "name": "Base_1"
    },
    {
      "mesh": 0,
      "name": "Base_1_Base_0"
    },
    {
      "children": [
        7,
        8
      ],
      "matrix": [
        1,
        0,
        0,
        0,
        0,
        2.2204460492503131e-16,
        -1,
        0,
        0,
        1,
        2.2204460492503131e-16,
        0,
        0,
        0,
        -2.4651903288156619e-32,
        1
      ],
      "name": "Group_Global"
    },
    {
      "mesh": 1,
      "name": "Group_Global_Canasta_Mimbre_0"
    },
    {
      "mesh": 2,
      "name": "Group_Global_Canasta_Mimbre_0"
    }
  ],
  "samplers": [
    {
      "magFilter": 9729,
      "minFilter": 9987,
      "wrapS": 10497,
      "wrapT": 10497
    }
  ],
  "scene": 0,
  "scenes": [
    {
      "name": "OSG_Scene",
      "nodes": [
        0
      ]
    }
  ],
  "textures": [
    {
      "sampler": 0,
      "source": 0
    },
    {
      "sampler": 0,
      "source": 1
    }
  ]
}

